# xmcd CD database file
#
# Track frame offsets:
#	150
#	18787
#	44550
#	84217
#	107090
#	136055
#	164917
#	183660
#	198322
#	223287
#	244802
#	246992
#
# Disc length: 3563 seconds
#
# Revision: 0
# Processed by: cddbd v1.4PL0 Copyright (c) Steve Scherf et al.
# Submitted via: CDex 1.50beta10
#
DISCID=ac0de90c
DTITLE=Yogeshwara and Jo Crystal - West and east (a cosmic connection)
DYEAR=1900
DGENRE=New Age
TTITLE0=East and west
TTITLE1=Shambahayaie
TTITLE2=Smile of the soul
TTITLE3=Quiet love
TTITLE4=Ganpati
TTITLE5=One spirit
TTITLE6=Ye atma balda
TTITLE7=Mystic shanti
TTITLE8=See the light
TTITLE9=Hara om
TTITLE10=Sadhu
TTITLE11=Tryambakam
EXTD=
EXTT0=
EXTT1=
EXTT2=
EXTT3=
EXTT4=
EXTT5=
EXTT6=
EXTT7=
EXTT8=
EXTT9=
EXTT10=
EXTT11=
PLAYORDER=
